<svg width="240" height="240" viewBox="0 0 240 240" fill="none" xmlns="http://www.w3.org/2000/svg">
  <defs>
    <linearGradient id="bg" x1="24" y1="24" x2="216" y2="216" gradientUnits="userSpaceOnUse">
      <stop stop-color="#EAF7FB"/>
      <stop offset="1" stop-color="#D6F0F8"/>
    </linearGradient>
    <linearGradient id="accent" x1="76" y1="56" x2="164" y2="160" gradientUnits="userSpaceOnUse">
      <stop stop-color="#2EA6C6"/>
      <stop offset="1" stop-color="#5BC0DE"/>
    </linearGradient>
  </defs>

  <rect x="16" y="16" width="208" height="208" rx="34" fill="url(#bg)"/>
  <rect x="24" y="24" width="192" height="192" rx="28" stroke="#BEE7F3" stroke-width="2"/>

  <circle cx="120" cy="118" r="58" fill="white"/>
  <rect x="76" y="84" width="88" height="66" rx="16" fill="url(#accent)"/>
  <rect x="100" y="66" width="40" height="16" rx="8" fill="#2EA6C6"/>
  <circle cx="104" cy="110" r="8" fill="white"/>
  <circle cx="136" cy="110" r="8" fill="white"/>
  <rect x="102" y="128" width="36" height="8" rx="4" fill="#CFF2FB"/>

  <rect x="64" y="98" width="12" height="34" rx="6" fill="#7BCFE6"/>
  <rect x="164" y="98" width="12" height="34" rx="6" fill="#7BCFE6"/>
  <rect x="96" y="150" width="16" height="20" rx="7" fill="#5BC0DE"/>
  <rect x="128" y="150" width="16" height="20" rx="7" fill="#5BC0DE"/>

  <circle cx="58" cy="60" r="6" fill="#9EDDED"/>
  <circle cx="186" cy="176" r="5" fill="#9EDDED"/>
  <circle cx="176" cy="56" r="4" fill="#C3ECF7"/>
</svg>