<svg width="240" height="240" viewBox="0 0 240 240" fill="none" xmlns="http://www.w3.org/2000/svg">
  <defs>
    <linearGradient id="bg" x1="20" y1="20" x2="220" y2="220" gradientUnits="userSpaceOnUse">
      <stop stop-color="#EAF7FB"/>
      <stop offset="1" stop-color="#D8F2FA"/>
    </linearGradient>
    <linearGradient id="chip" x1="76" y1="80" x2="164" y2="160" gradientUnits="userSpaceOnUse">
      <stop stop-color="#2EA6C6"/>
      <stop offset="1" stop-color="#5BC0DE"/>
    </linearGradient>
  </defs>

  <rect x="16" y="16" width="208" height="208" rx="34" fill="url(#bg)"/>
  <rect x="24" y="24" width="192" height="192" rx="28" stroke="#BEE7F3" stroke-width="2"/>

  <rect x="72" y="74" width="96" height="96" rx="20" fill="white"/>
  <rect x="86" y="88" width="68" height="68" rx="14" fill="url(#chip)"/>

  <rect x="102" y="104" width="36" height="36" rx="8" fill="#D4F4FB"/>
  <path d="M112 122H128" stroke="#2EA6C6" stroke-width="4" stroke-linecap="round"/>
  <path d="M120 114V130" stroke="#2EA6C6" stroke-width="4" stroke-linecap="round"/>

  <rect x="62" y="96" width="12" height="10" rx="4" fill="#7BCFE6"/>
  <rect x="62" y="116" width="12" height="10" rx="4" fill="#7BCFE6"/>
  <rect x="62" y="136" width="12" height="10" rx="4" fill="#7BCFE6"/>

  <rect x="166" y="96" width="12" height="10" rx="4" fill="#7BCFE6"/>
  <rect x="166" y="116" width="12" height="10" rx="4" fill="#7BCFE6"/>
  <rect x="166" y="136" width="12" height="10" rx="4" fill="#7BCFE6"/>

  <rect x="96" y="62" width="10" height="12" rx="4" fill="#7BCFE6"/>
  <rect x="116" y="62" width="10" height="12" rx="4" fill="#7BCFE6"/>
  <rect x="136" y="62" width="10" height="12" rx="4" fill="#7BCFE6"/>

  <rect x="96" y="170" width="10" height="12" rx="4" fill="#7BCFE6"/>
  <rect x="116" y="170" width="10" height="12" rx="4" fill="#7BCFE6"/>
  <rect x="136" y="170" width="10" height="12" rx="4" fill="#7BCFE6"/>

  <circle cx="56" cy="58" r="5" fill="#9EDDED"/>
  <circle cx="188" cy="180" r="5" fill="#9EDDED"/>
</svg>