<svg width="240" height="240" viewBox="0 0 240 240" fill="none" xmlns="http://www.w3.org/2000/svg">
  <defs>
    <linearGradient id="bg" x1="20" y1="20" x2="220" y2="220" gradientUnits="userSpaceOnUse">
      <stop stop-color="#EAF7FB"/>
      <stop offset="1" stop-color="#D7F1F9"/>
    </linearGradient>
    <linearGradient id="screen" x1="78" y1="70" x2="162" y2="154" gradientUnits="userSpaceOnUse">
      <stop stop-color="#2EA6C6"/>
      <stop offset="1" stop-color="#5BC0DE"/>
    </linearGradient>
  </defs>

  <rect x="16" y="16" width="208" height="208" rx="34" fill="url(#bg)"/>
  <rect x="24" y="24" width="192" height="192" rx="28" stroke="#BEE7F3" stroke-width="2"/>

  <rect x="72" y="62" width="96" height="112" rx="16" fill="white"/>
  <rect x="82" y="74" width="76" height="68" rx="12" fill="url(#screen)"/>

  <path d="M98 102L112 114L144 90" stroke="#D4F4FB" stroke-width="7" stroke-linecap="round" stroke-linejoin="round"/>
  <rect x="88" y="152" width="64" height="8" rx="4" fill="#9EDDED"/>
  <rect x="88" y="164" width="42" height="7" rx="3.5" fill="#BEE7F3"/>

  <circle cx="120" cy="148" r="3" fill="#2EA6C6"/>
  <path d="M58 116L72 116" stroke="#7BCFE6" stroke-width="4" stroke-linecap="round"/>
  <path d="M168 116L182 116" stroke="#7BCFE6" stroke-width="4" stroke-linecap="round"/>
  <path d="M120 42V58" stroke="#7BCFE6" stroke-width="4" stroke-linecap="round"/>

  <circle cx="62" cy="62" r="5" fill="#9EDDED"/>
  <circle cx="180" cy="180" r="5" fill="#9EDDED"/>
</svg>